<svg xmlns="http://www.w3.org/2000/svg" viewBox="0 0 64 64" width="64" height="64" role="img" aria-label="Hourglass Tower Icon">
  <rect x="16" y="48" width="32" height="6" fill="#aaa"/>

  <rect x="20" y="36" width="24" height="12" fill="#bbb"/>
  
  <rect x="26" y="24" width="12" height="12" fill="#ccc"/>
  
  <rect x="20" y="12" width="24" height="12" fill="#bbb"/>
  
  <rect x="16" y="6" width="32" height="6" fill="#aaa"/>
  
  <g fill="#666">
    <rect x="22" y="38" width="2" height="2"/>
    <rect x="26" y="38" width="2" height="2"/>
    <rect x="34" y="38" width="2" height="2"/>
    <rect x="38" y="38" width="2" height="2"/>
    
    <rect x="28" y="26" width="2" height="2"/>
    <rect x="34" y="26" width="2" height="2"/>
    
    <rect x="22" y="14" width="2" height="2"/>
    <rect x="28" y="14" width="2" height="2"/>
    <rect x="34" y="14" width="2" height="2"/>
    <rect x="38" y="14" width="2" height="2"/>
  </g>
</svg>
