<svg xmlns="http://www.w3.org/2000/svg" viewBox="0 0 64 64" width="64" height="64" role="img" aria-label="Factory with Pollution Icon">
  <rect x="8" y="24" width="48" height="32" fill="#bbb" stroke="#888" stroke-width="1.5"/>

  <polygon points="8,24 32,8 56,24" fill="#aaa" stroke="#888" stroke-width="1.5"/>

  <rect x="14" y="8" width="4" height="16" fill="#999" stroke="#666" stroke-width="1"/>
  <rect x="46" y="8" width="4" height="16" fill="#999" stroke="#666" stroke-width="1"/>

  <g fill="#666">
    <rect x="12" y="28" width="6" height="6"/>
    <rect x="22" y="28" width="6" height="6"/>
    <rect x="32" y="28" width="6" height="6"/>
    <rect x="42" y="28" width="6" height="6"/>
    <rect x="12" y="38" width="6" height="6"/>
    <rect x="22" y="38" width="6" height="6"/>
    <rect x="32" y="38" width="6" height="6"/>
    <rect x="42" y="38" width="6" height="6"/>
  </g>

  <g fill="gray" opacity="0.6">
    <ellipse cx="16" cy="4" rx="4" ry="3"/>
    <ellipse cx="20" cy="2" rx="3" ry="2"/>
    <ellipse cx="48" cy="4" rx="4" ry="3"/>
    <ellipse cx="52" cy="2" rx="3" ry="2"/>
  </g>
</svg>
